<svg width="45" height="80" viewBox="0 0 45 80" fill="none" xmlns="http://www.w3.org/2000/svg">
<path fill-rule="evenodd" clip-rule="evenodd" d="M44.5129 61.1057C44.4249 61.7899 44.1816 62.4754 43.817 63.0665C43.4524 63.6577 42.9847 64.1248 42.4793 64.4027L14.8282 79.61C14.2888 79.9067 13.7363 79.9716 13.2579 79.7943C12.7795 79.6171 12.4025 79.2079 12.1866 78.6314L1.11786 49.0793C0.915909 48.5392 0.865756 47.8803 0.974407 47.1946C1.08306 46.509 1.34508 45.8308 1.7239 45.2548C2.10272 44.6788 2.57942 44.2337 3.08744 43.9817C3.59545 43.7297 4.10944 43.6833 4.55762 43.849L13.1405 47.0288C19.2707 29.7423 20.1351 20.6673 19.2848 15.6329C18.477 10.8469 16.0751 9.1354 13.557 7.34807L12.9087 6.88607C12.4462 6.55157 12.1387 5.96162 12.044 5.2272C11.9493 4.49278 12.0739 3.66453 12.3945 2.89826C12.7151 2.132 13.2094 1.48054 13.7846 1.06646C14.3597 0.65238 14.976 0.504217 15.5175 0.649844C21.6325 2.28991 29.8926 6.28815 34.7589 15.1483C39.4819 23.7481 40.8119 36.5739 34.6257 54.9885L43.2775 58.1938C43.7257 58.3597 44.0857 58.7294 44.3072 59.2515C44.5287 59.7736 44.6006 60.4218 44.5129 61.1057Z" fill="#7E1615"/>
</svg>
