<svg width="21" height="21" viewBox="0 0 21 21" fill="none" xmlns="http://www.w3.org/2000/svg">
<path d="M15.1091 9.18067C15.1091 11.958 12.8576 14.2095 10.0803 14.2095C7.30296 14.2095 5.05148 11.958 5.05148 9.18067C5.05148 8.39807 5.23544 7.66027 5.55408 7.00003H0V18.76C0 19.838 0.882 20.72 1.96 20.72H18.2C19.278 20.72 20.16 19.838 20.16 18.76V7.00003H14.6062C14.9365 7.67955 15.1085 8.42512 15.1091 9.18067ZM18.2 0.280029H1.96C0.882 0.280029 0 1.16203 0 2.24003V6.16003H6.0662C6.98404 4.94231 8.4378 4.15187 10.08 4.15187C11.7222 4.15187 13.176 4.94231 14.0938 6.16003H20.16V2.24003C20.16 1.16203 19.278 0.280029 18.2 0.280029ZM1.61168 5.24051H0.882V2.41391C0.881976 2.17932 0.951243 1.94994 1.08111 1.75457C1.21097 1.5592 1.39565 1.40654 1.61196 1.31575V5.24051H1.61168ZM2.80728 5.24051H2.11596V1.22307H2.80728V5.24051ZM4.0026 5.24051H3.31128V1.22307H4.0026V5.24051ZM5.19708 2.41391V5.24051H4.5066V1.22307H5.19708V2.41391ZM19.1383 4.04967C19.1383 4.20602 19.1076 4.36084 19.0478 4.5053C18.988 4.64976 18.9003 4.78102 18.7898 4.8916C18.6792 5.00218 18.548 5.08991 18.4036 5.14978C18.2592 5.20964 18.1043 5.24047 17.948 5.24051H16.0135C15.8571 5.24051 15.7023 5.2097 15.5578 5.14986C15.4133 5.09001 15.2821 5.00229 15.1715 4.8917C15.061 4.78112 14.9733 4.64984 14.9135 4.50536C14.8537 4.36088 14.8229 4.20604 14.8229 4.04967V2.41391C14.8229 2.25754 14.8537 2.10269 14.9135 1.95822C14.9733 1.81374 15.061 1.68246 15.1715 1.57187C15.2821 1.46129 15.4133 1.37357 15.5578 1.31372C15.7023 1.25387 15.8571 1.22307 16.0135 1.22307H17.948C18.1044 1.22307 18.2592 1.25388 18.4036 1.31373C18.5481 1.37358 18.6793 1.46131 18.7899 1.57189C18.9004 1.68248 18.9881 1.81376 19.0478 1.95824C19.1076 2.10271 19.1384 2.25755 19.1383 2.41391V4.04967Z" fill="#7E1615"/>
<path d="M10.0805 13.6214C12.5266 13.6214 14.5095 11.6376 14.5095 9.19205C14.5095 6.74625 12.5268 4.76245 10.0805 4.76245C7.63384 4.76245 5.65088 6.74625 5.65088 9.19205C5.65088 11.6373 7.63384 13.6214 10.0805 13.6214ZM10.0802 5.66293C12.029 5.66293 13.6093 7.24297 13.6093 9.19205C13.6093 11.1409 12.0293 12.7212 10.0802 12.7212C8.13112 12.7212 6.55108 11.1411 6.55108 9.19205C6.55136 7.24269 8.1314 5.66293 10.0802 5.66293Z" fill="#7E1615"/>
</svg>
