<svg width="22" height="23" viewBox="0 0 22 23" fill="none" xmlns="http://www.w3.org/2000/svg">
<path d="M17.6282 22.4998C16.6695 22.4998 15.3227 22.1531 13.3059 21.0266C10.8535 19.6516 8.95661 18.3821 6.51745 15.9498C4.16572 13.6 3.02129 12.0787 1.41958 9.1646C-0.389902 5.87439 -0.0814462 4.14972 0.263356 3.41262C0.673976 2.53162 1.28008 2.0047 2.0635 1.4817C2.50848 1.19021 2.97937 0.940344 3.47022 0.735261C3.51933 0.714145 3.56501 0.694011 3.60578 0.675841C3.84891 0.566331 4.21729 0.400838 4.6839 0.577626C4.99531 0.694502 5.27331 0.933657 5.70849 1.36335C6.60095 2.24336 7.82053 4.20325 8.27044 5.16576C8.57251 5.81447 8.77242 6.24269 8.77291 6.72297C8.77291 7.28525 8.48999 7.71887 8.14666 8.18687C8.08232 8.27477 8.01847 8.35875 7.95658 8.44026C7.5828 8.93134 7.50077 9.07326 7.5548 9.32666C7.66433 9.83591 8.48115 11.3519 9.82353 12.691C11.1659 14.0302 12.6384 14.7953 13.1497 14.9043C13.414 14.9608 13.5589 14.8753 14.0658 14.4884C14.1385 14.4329 14.2131 14.3754 14.2912 14.318C14.8148 13.9285 15.2284 13.6531 15.7775 13.6531H15.7805C16.2584 13.6531 16.6675 13.8603 17.3453 14.2021C18.2294 14.648 20.2486 15.8516 21.1342 16.7449C21.565 17.179 21.8052 17.456 21.9226 17.7668C22.0994 18.2348 21.9329 18.6016 21.8243 18.8472C21.8062 18.8879 21.786 18.9326 21.7649 18.9822C21.5581 19.4721 21.3068 19.9419 21.0139 20.3857C20.4918 21.1665 19.9628 21.7711 19.0797 22.1821C18.6262 22.3965 18.1299 22.5052 17.6282 22.4998Z" fill="#7E1615"/>
</svg>
