<svg width="30" height="30" viewBox="0 0 30 30" fill="none" xmlns="http://www.w3.org/2000/svg">
<path d="M5.06409 0.658222L7.36984 0.142216C9.53203 -0.340789 11.8421 0.44072 12.7678 1.96774L14.6107 5.00977C15.4121 6.33429 14.9664 7.89281 13.5092 8.86182L9.44845 11.5589C9.69917 13.1729 10.4749 14.7614 11.7735 16.3244C13.0067 17.8366 14.6608 19.1603 16.6379 20.217L21.5151 19.0769C23.3623 18.6464 25.3766 19.1429 26.5081 20.3085L29.1502 23.0235C30.4681 24.3795 30.2303 26.2485 28.5952 27.3975L26.8445 28.6291C25.1002 29.8546 22.608 30.3001 20.3044 29.7961C14.8614 28.6081 9.86203 25.0815 5.29766 19.2164C0.726862 13.3424 -0.88674 8.35631 0.458999 4.26426C1.02472 2.54224 2.77547 1.16973 5.06409 0.658222Z" fill="#7E1615"/>
</svg>
