<svg width="24" height="25" viewBox="0 0 24 25" fill="none" xmlns="http://www.w3.org/2000/svg">
<path d="M0 12.5C0 17.623 3.211 21.997 7.73 23.718C7.62 22.781 7.503 21.236 7.755 20.152C7.972 19.22 9.156 14.214 9.156 14.214C9.156 14.214 8.799 13.499 8.799 12.44C8.799 10.78 9.761 9.54 10.96 9.54C11.98 9.54 12.472 10.305 12.472 11.222C12.472 12.247 11.819 13.779 11.482 15.2C11.201 16.389 12.079 17.359 13.251 17.359C15.374 17.359 17.007 15.12 17.007 11.888C17.007 9.027 14.951 7.028 12.016 7.028C8.618 7.028 6.623 9.577 6.623 12.212C6.623 13.239 7.018 14.339 7.512 14.938C7.55412 14.9832 7.58387 15.0386 7.59841 15.0986C7.61295 15.1587 7.61177 15.2215 7.595 15.281C7.504 15.659 7.302 16.47 7.263 16.636C7.21 16.854 7.09 16.901 6.863 16.795C5.371 16.101 4.439 13.92 4.439 12.168C4.439 8.399 7.176 4.939 12.331 4.939C16.475 4.939 19.696 7.892 19.696 11.838C19.696 15.955 17.101 19.269 13.497 19.269C12.286 19.269 11.149 18.639 10.759 17.896C10.759 17.896 10.16 20.178 10.015 20.736C9.733 21.82 8.951 23.192 8.466 23.971C9.584 24.315 10.77 24.5 12 24.5C18.627 24.5 24 19.127 24 12.5C24 5.873 18.627 0.5 12 0.5C5.373 0.5 0 5.873 0 12.5Z" fill="#7E1615"/>
</svg>
