<svg width="24" height="25" viewBox="0 0 24 25" fill="none" xmlns="http://www.w3.org/2000/svg">
<path d="M12 0.97998C5.63758 0.97998 0.47998 6.13758 0.47998 12.5C0.47998 18.8624 5.63758 24.02 12 24.02C18.3624 24.02 23.52 18.8624 23.52 12.5C23.52 6.13758 18.3624 0.97998 12 0.97998ZM16.4304 13.9772C16.4304 13.9772 17.4492 14.9828 17.7 15.4496C17.7072 15.4592 17.7108 15.4688 17.7132 15.4736C17.8152 15.6452 17.8392 15.7784 17.7888 15.878C17.7048 16.0436 17.4168 16.1252 17.3184 16.1324H15.5184C15.3936 16.1324 15.132 16.1 14.8152 15.8816C14.5716 15.7112 14.3316 15.4316 14.0976 15.1592C13.7484 14.7536 13.446 14.4032 13.1412 14.4032C13.1025 14.4031 13.064 14.4092 13.0272 14.4212C12.7968 14.4956 12.5016 14.8244 12.5016 15.7004C12.5016 15.974 12.2856 16.1312 12.1332 16.1312H11.3088C11.028 16.1312 9.56518 16.0328 8.26918 14.666C6.68278 12.992 5.25478 9.63438 5.24278 9.60318C5.15278 9.38598 5.33878 9.26958 5.54158 9.26958H7.35958C7.60198 9.26958 7.68118 9.41718 7.73638 9.54798C7.80118 9.70038 8.03878 10.3064 8.42878 10.988C9.06118 12.0992 9.44878 12.5504 9.75958 12.5504C9.81786 12.5497 9.8751 12.5349 9.92638 12.5072C10.332 12.2816 10.2564 10.8356 10.2384 10.5356C10.2384 10.4792 10.2372 9.88878 10.0296 9.60558C9.88078 9.40038 9.62758 9.32238 9.47398 9.29358C9.53615 9.20779 9.61806 9.13823 9.71278 9.09078C9.99118 8.95158 10.4928 8.93118 10.9908 8.93118H11.268C11.808 8.93838 11.9472 8.97318 12.1428 9.02238C12.5388 9.11718 12.5472 9.37278 12.5124 10.2476C12.5016 10.496 12.4908 10.7768 12.4908 11.108C12.4908 11.18 12.4872 11.2568 12.4872 11.3384C12.4752 11.7836 12.4608 12.2888 12.7752 12.4964C12.8162 12.5221 12.8636 12.5358 12.912 12.536C13.0212 12.536 13.35 12.536 14.2404 11.0084C14.515 10.5167 14.7536 10.0058 14.9544 9.47958C14.9724 9.44838 15.0252 9.35238 15.0876 9.31518C15.1336 9.2917 15.1847 9.27976 15.2364 9.28038H17.3736C17.6064 9.28038 17.766 9.31518 17.796 9.40518C17.8488 9.54798 17.7864 9.98358 16.8108 11.3048L16.3752 11.8796C15.4908 13.0388 15.4908 13.0976 16.4304 13.9772Z" fill="#7E1615"/>
</svg>
