<svg width="28" height="28" viewBox="0 0 28 28" fill="none" xmlns="http://www.w3.org/2000/svg">
<path d="M25.5599 6.69018C21.4799 0.400183 13.1499 -1.46982 6.68987 2.44018C0.399869 6.35018 -1.64013 14.8502 2.43987 21.1402L2.77987 21.6502L1.41987 26.7502L6.51987 25.3902L7.02987 25.7302C9.23987 26.9202 11.6199 27.6002 13.9999 27.6002C16.5499 27.6002 19.0999 26.9202 21.3099 25.5602C27.5999 21.4802 29.4699 13.1502 25.5599 6.69018ZM21.9899 19.7802C21.3099 20.8002 20.4599 21.4802 19.2699 21.6502C18.5899 21.6502 17.7399 21.9902 14.3399 20.6302C11.4499 19.2702 9.06987 17.0602 7.36987 14.5102C6.34987 13.3202 5.83987 11.7902 5.66987 10.2602C5.66987 8.90018 6.17987 7.71018 7.02987 6.86018C7.36987 6.52018 7.70987 6.35018 8.04987 6.35018H8.89987C9.23987 6.35018 9.57987 6.35018 9.74987 7.03018C10.0899 7.88018 10.9399 9.92018 10.9399 10.0902C11.1099 10.2602 11.1099 10.6002 10.9399 10.7702C11.1099 11.1102 10.9399 11.4502 10.7699 11.6202C10.5999 11.7902 10.4299 12.1302 10.2599 12.3002C9.91987 12.4702 9.74987 12.8102 9.91987 13.1502C10.5999 14.1702 11.4499 15.1902 12.2999 16.0402C13.3199 16.8902 14.3399 17.5702 15.5299 18.0802C15.8699 18.2502 16.2099 18.2502 16.3799 17.9102C16.5499 17.5702 17.3999 16.7202 17.7399 16.3802C18.0799 16.0402 18.2499 16.0402 18.5899 16.2102L21.3099 17.5702C21.6499 17.7402 21.9899 17.9102 22.1599 18.0802C22.3299 18.5902 22.3299 19.2702 21.9899 19.7802Z" fill="#7E1615"/>
</svg>
